<svg xmlns="http://www.w3.org/2000/svg" xmlns:xlink="http://www.w3.org/1999/xlink" width="500" zoomAndPan="magnify" viewBox="0 0 375 374.999991" height="500" preserveAspectRatio="xMidYMid meet" version="1.0"><defs><g/><clipPath id="6f8ae78ad5"><rect x="0" width="160" y="0" height="193"/></clipPath><clipPath id="35c9b80fe4"><rect x="0" width="158" y="0" height="205"/></clipPath><clipPath id="90ea458556"><rect x="0" width="94" y="0" height="23"/></clipPath><clipPath id="6b8b5aefe6"><rect x="0" width="158" y="0" height="205"/></clipPath></defs><rect x="-37.5" width="450" fill="#ffffff" y="-37.499999" height="449.999989" fill-opacity="1"/><rect x="-37.5" width="450" fill="#ffffff" y="-37.499999" height="449.999989" fill-opacity="1"/><g transform="matrix(1, 0, 0, 1, 109, 96)"><g clip-path="url(#6f8ae78ad5)"><g fill="#000000" fill-opacity="1"><g transform="translate(1.382021, 146.473521)"><g><path d="M 9.640625 -70.53125 C 9.640625 -80.550781 11.4375 -89.929688 15.03125 -98.671875 C 18.625 -107.410156 23.566406 -115.054688 29.859375 -121.609375 C 36.160156 -128.160156 43.488281 -133.296875 51.84375 -137.015625 C 60.195312 -140.742188 69.125 -142.609375 78.625 -142.609375 C 88.132812 -142.609375 97.097656 -140.742188 105.515625 -137.015625 C 113.929688 -133.296875 121.347656 -128.160156 127.765625 -121.609375 C 134.191406 -115.054688 139.203125 -107.410156 142.796875 -98.671875 C 146.398438 -89.929688 148.203125 -80.550781 148.203125 -70.53125 C 148.203125 -60.507812 146.398438 -51.097656 142.796875 -42.296875 C 139.203125 -33.492188 134.191406 -25.753906 127.765625 -19.078125 C 121.347656 -12.398438 113.929688 -7.164062 105.515625 -3.375 C 97.097656 0.414062 88.132812 2.3125 78.625 2.3125 C 69.125 2.3125 60.195312 0.414062 51.84375 -3.375 C 43.488281 -7.164062 36.160156 -12.398438 29.859375 -19.078125 C 23.566406 -25.753906 18.625 -33.492188 15.03125 -42.296875 C 11.4375 -51.097656 9.640625 -60.507812 9.640625 -70.53125 Z M 76.703125 -139.90625 C 69.378906 -139.90625 62.988281 -138.109375 57.53125 -134.515625 C 52.070312 -130.921875 47.507812 -125.972656 43.84375 -119.671875 C 40.175781 -113.378906 37.410156 -106.1875 35.546875 -98.09375 C 33.691406 -90 32.765625 -81.519531 32.765625 -72.65625 C 32.765625 -63.40625 33.691406 -54.441406 35.546875 -45.765625 C 37.410156 -37.097656 40.269531 -29.359375 44.125 -22.546875 C 47.988281 -15.734375 52.9375 -10.335938 58.96875 -6.359375 C 65.007812 -2.378906 72.207031 -0.390625 80.5625 -0.390625 C 88.269531 -0.390625 94.914062 -2.1875 100.5 -5.78125 C 106.09375 -9.375 110.71875 -14.285156 114.375 -20.515625 C 118.039062 -26.753906 120.738281 -33.984375 122.46875 -42.203125 C 124.207031 -50.429688 125.078125 -59.171875 125.078125 -68.421875 C 125.078125 -77.410156 124.175781 -86.144531 122.375 -94.625 C 120.570312 -103.101562 117.742188 -110.742188 113.890625 -117.546875 C 110.035156 -124.359375 105.023438 -129.785156 98.859375 -133.828125 C 92.691406 -137.878906 85.304688 -139.90625 76.703125 -139.90625 Z M 76.703125 -139.90625 "/></g></g></g></g></g><g transform="matrix(1, 0, 0, 1, 67, 87)"><g clip-path="url(#35c9b80fe4)"><g fill="#ffffff" fill-opacity="1"><g transform="translate(7.639822, 156.858932)"><g><path d="M -4.210938 0 L -4.210938 -12.730469 L 5.945312 -12.730469 C 7.714844 -12.730469 9.167969 -12.832031 10.304688 -13.039062 C 10.695312 -13.109375 11.011719 -13.1875 11.257812 -13.269531 L 11.28125 -13.257812 C 10.25 -12.667969 9.582031 -11.957031 9.277344 -11.132812 C 9.398438 -11.464844 9.460938 -12.179688 9.460938 -13.277344 L 9.460938 -131.171875 C 9.460938 -132.269531 9.398438 -132.984375 9.277344 -133.3125 C 9.582031 -132.492188 10.25 -131.78125 11.28125 -131.191406 L 11.257812 -131.179688 C 11.011719 -131.261719 10.695312 -131.339844 10.304688 -131.410156 C 9.167969 -131.613281 7.714844 -131.71875 5.945312 -131.71875 L -4.210938 -131.71875 L -4.210938 -154.605469 L 65.238281 -154.605469 L 65.238281 -131.71875 L 55.085938 -131.71875 C 53.359375 -131.71875 51.9375 -131.621094 50.8125 -131.421875 C 50.210938 -131.316406 49.855469 -131.234375 49.742188 -131.175781 C 50.746094 -131.71875 51.414062 -132.398438 51.753906 -133.210938 C 51.65625 -132.976562 51.589844 -132.390625 51.5625 -131.460938 L 41.414062 -131.765625 L 51.566406 -131.765625 L 51.566406 -75.691406 L 41.414062 -75.691406 L 41.414062 -85.847656 L 102.242188 -85.847656 L 102.242188 -75.691406 L 92.089844 -75.691406 L 92.089844 -131.171875 C 92.089844 -132.234375 92.03125 -132.917969 91.914062 -133.21875 C 92.230469 -132.394531 92.898438 -131.695312 93.921875 -131.125 C 93.789062 -131.199219 93.40625 -131.292969 92.773438 -131.40625 C 91.617188 -131.613281 90.148438 -131.71875 88.375 -131.71875 L 78.21875 -131.71875 L 78.21875 -154.605469 L 147.867188 -154.605469 L 147.867188 -131.71875 L 137.710938 -131.71875 C 135.941406 -131.71875 134.488281 -131.613281 133.351562 -131.410156 C 132.960938 -131.339844 132.644531 -131.261719 132.394531 -131.179688 L 132.375 -131.191406 C 133.40625 -131.78125 134.074219 -132.492188 134.378906 -133.3125 C 134.257812 -132.984375 134.195312 -132.269531 134.195312 -131.171875 L 134.195312 -12.878906 C 134.195312 -11.886719 134.242188 -11.269531 134.335938 -11.019531 C 133.992188 -11.925781 133.269531 -12.675781 132.171875 -13.273438 C 132.132812 -13.296875 132.101562 -13.3125 132.085938 -13.316406 C 132.121094 -13.300781 132.175781 -13.285156 132.242188 -13.261719 C 132.507812 -13.179688 132.847656 -13.101562 133.261719 -13.03125 C 134.425781 -12.832031 135.910156 -12.730469 137.710938 -12.730469 L 147.867188 -12.730469 L 147.867188 10.15625 L 78.21875 10.15625 L 78.21875 -12.730469 L 88.375 -12.730469 C 90.148438 -12.730469 91.617188 -12.835938 92.773438 -13.042969 C 93.40625 -13.15625 93.789062 -13.25 93.921875 -13.324219 C 92.898438 -12.753906 92.230469 -12.054688 91.914062 -11.226562 C 92.03125 -11.53125 92.089844 -12.214844 92.089844 -13.277344 L 92.089844 -73.117188 L 102.242188 -73.117188 L 102.242188 -62.960938 L 41.414062 -62.960938 L 41.414062 -73.117188 L 51.566406 -73.117188 L 51.566406 -11.292969 L 41.414062 -11.292969 L 51.542969 -12.019531 C 51.566406 -11.679688 51.601562 -11.417969 51.648438 -11.230469 L 51.644531 -11.230469 C 51.617188 -11.304688 51.582031 -11.386719 51.53125 -11.476562 C 51.105469 -12.289062 50.425781 -12.914062 49.5 -13.351562 C 50.378906 -12.9375 52.238281 -12.730469 55.085938 -12.730469 L 65.238281 -12.730469 L 65.238281 10.15625 L -4.210938 10.15625 Z M 16.097656 0 L 5.945312 0 L 5.945312 -10.15625 L 55.085938 -10.15625 L 55.085938 0 L 44.929688 0 L 44.929688 -2.574219 L 55.085938 -2.574219 L 55.085938 7.578125 C 49.210938 7.578125 44.46875 6.730469 40.851562 5.027344 C 37.683594 3.535156 35.253906 1.195312 33.570312 -1.996094 C 32.277344 -4.445312 31.515625 -7.300781 31.28125 -10.570312 L 31.257812 -10.933594 L 31.257812 -83.269531 L 112.398438 -83.269531 L 112.398438 -13.277344 C 112.398438 -4.679688 109.542969 1.214844 103.828125 4.40625 C 100.042969 6.523438 94.890625 7.578125 88.375 7.578125 L 88.375 -2.574219 L 98.527344 -2.574219 L 98.527344 0 L 88.375 0 L 88.375 -10.15625 L 137.710938 -10.15625 L 137.710938 0 L 127.554688 0 L 127.554688 -2.574219 L 137.710938 -2.574219 L 137.710938 7.578125 C 131.230469 7.578125 126.140625 6.570312 122.445312 4.554688 C 116.738281 1.441406 113.882812 -4.371094 113.882812 -12.878906 L 113.882812 -131.171875 C 113.882812 -139.710938 116.671875 -145.582031 122.242188 -148.789062 C 125.988281 -150.949219 131.144531 -152.027344 137.710938 -152.027344 L 137.710938 -141.871094 L 127.554688 -141.871094 L 127.554688 -144.449219 L 137.710938 -144.449219 L 137.710938 -134.292969 L 88.375 -134.292969 L 88.375 -144.449219 L 98.527344 -144.449219 L 98.527344 -141.871094 L 88.375 -141.871094 L 88.375 -152.027344 C 94.890625 -152.027344 100.042969 -150.96875 103.828125 -148.855469 C 109.542969 -145.664062 112.398438 -139.769531 112.398438 -131.171875 L 112.398438 -65.535156 L 31.257812 -65.535156 L 31.257812 -131.921875 L 31.261719 -132.074219 C 31.511719 -140.3125 34.429688 -145.957031 40.015625 -149.003906 C 43.710938 -151.019531 48.734375 -152.027344 55.085938 -152.027344 L 55.085938 -141.871094 L 44.929688 -141.871094 L 44.929688 -144.449219 L 55.085938 -144.449219 L 55.085938 -134.292969 L 5.945312 -134.292969 L 5.945312 -144.449219 L 16.097656 -144.449219 L 16.097656 -141.871094 L 5.945312 -141.871094 L 5.945312 -152.027344 C 12.507812 -152.027344 17.667969 -150.949219 21.414062 -148.789062 C 26.984375 -145.582031 29.773438 -139.710938 29.773438 -131.171875 L 29.773438 -13.277344 C 29.773438 -4.738281 26.984375 1.132812 21.414062 4.34375 C 17.667969 6.5 12.507812 7.578125 5.945312 7.578125 L 5.945312 -2.574219 L 16.097656 -2.574219 Z M 16.097656 0 "/></g></g></g><g fill="#000000" fill-opacity="1"><g transform="translate(7.639822, 156.858932)"><g><path d="M 5.9375 0 L 5.9375 -2.578125 C 10.695312 -2.578125 14.164062 -3.203125 16.34375 -4.453125 C 18.519531 -5.710938 19.609375 -8.65625 19.609375 -13.28125 L 19.609375 -131.171875 C 19.609375 -135.796875 18.519531 -138.734375 16.34375 -139.984375 C 14.164062 -141.242188 10.695312 -141.875 5.9375 -141.875 L 5.9375 -144.4375 L 55.078125 -144.4375 L 55.078125 -141.875 C 50.453125 -141.875 47.050781 -141.273438 44.875 -140.078125 C 42.695312 -138.890625 41.539062 -136.117188 41.40625 -131.765625 L 41.40625 -75.6875 L 102.234375 -75.6875 L 102.234375 -131.171875 C 102.234375 -135.796875 101.109375 -138.734375 98.859375 -139.984375 C 96.617188 -141.242188 93.125 -141.875 88.375 -141.875 L 88.375 -144.4375 L 137.703125 -144.4375 L 137.703125 -141.875 C 132.953125 -141.875 129.484375 -141.242188 127.296875 -139.984375 C 125.117188 -138.734375 124.03125 -135.796875 124.03125 -131.171875 L 124.03125 -12.875 C 124.03125 -8.382812 125.117188 -5.546875 127.296875 -4.359375 C 129.484375 -3.171875 132.953125 -2.578125 137.703125 -2.578125 L 137.703125 0 L 88.375 0 L 88.375 -2.578125 C 93.125 -2.578125 96.617188 -3.203125 98.859375 -4.453125 C 101.109375 -5.710938 102.234375 -8.65625 102.234375 -13.28125 L 102.234375 -73.109375 L 41.40625 -73.109375 L 41.40625 -11.296875 C 41.675781 -7.597656 42.929688 -5.21875 45.171875 -4.15625 C 47.421875 -3.101562 50.722656 -2.578125 55.078125 -2.578125 L 55.078125 0 Z M 5.9375 0 "/></g></g></g></g></g><g transform="matrix(1, 0, 0, 1, 143, 252)"><g clip-path="url(#90ea458556)"><g fill="#000000" fill-opacity="1"><g transform="translate(0.594627, 18.035315)"><g><path d="M 12.3125 -3.65625 C 11.863281 -2.507812 11.132812 -1.585938 10.125 -0.890625 C 9.101562 -0.179688 7.984375 0.171875 6.765625 0.171875 C 5.109375 0.171875 3.691406 -0.4375 2.515625 -1.65625 C 1.367188 -2.851562 0.796875 -4.289062 0.796875 -5.96875 C 0.796875 -6.800781 0.945312 -7.59375 1.25 -8.34375 C 1.550781 -9.082031 1.972656 -9.734375 2.515625 -10.296875 C 3.691406 -11.523438 5.109375 -12.140625 6.765625 -12.140625 C 7.984375 -12.140625 9.097656 -11.789062 10.109375 -11.09375 C 11.117188 -10.382812 11.847656 -9.460938 12.296875 -8.328125 L 10.9375 -8.328125 C 10.289062 -9.515625 9.328125 -10.300781 8.046875 -10.6875 C 7.617188 -10.800781 7.128906 -10.859375 6.578125 -10.859375 C 6.035156 -10.859375 5.472656 -10.734375 4.890625 -10.484375 C 4.316406 -10.210938 3.820312 -9.851562 3.40625 -9.40625 C 2.488281 -8.457031 2.03125 -7.3125 2.03125 -5.96875 C 2.03125 -4.644531 2.488281 -3.503906 3.40625 -2.546875 C 4.332031 -1.578125 5.453125 -1.09375 6.765625 -1.09375 C 7.648438 -1.09375 8.472656 -1.328125 9.234375 -1.796875 C 9.972656 -2.265625 10.546875 -2.882812 10.953125 -3.65625 Z M 12.3125 -3.65625 "/></g></g></g><g fill="#000000" fill-opacity="1"><g transform="translate(18.51735, 18.035315)"><g><path d="M 3.25 -4.40625 L 7.609375 -4.40625 L 5.4375 -9.921875 Z M 10.6875 0 L 9.34375 0 L 8.0625 -3.25 L 2.796875 -3.25 L 1.515625 0 L 0.171875 0 L 5.4375 -12.796875 Z M 10.6875 0 "/></g></g></g><g fill="#000000" fill-opacity="1"><g transform="translate(34.468755, 18.035315)"><g><path d="M 2.546875 -5.921875 L 5.328125 -5.921875 C 6.023438 -5.921875 6.597656 -6.15625 7.046875 -6.625 C 7.503906 -7.101562 7.734375 -7.695312 7.734375 -8.40625 C 7.734375 -9.09375 7.515625 -9.664062 7.078125 -10.125 C 6.640625 -10.570312 6.054688 -10.796875 5.328125 -10.796875 L 2.546875 -10.796875 Z M 8.96875 -8.359375 C 8.96875 -7.316406 8.597656 -6.453125 7.859375 -5.765625 C 7.203125 -5.148438 6.40625 -4.8125 5.46875 -4.75 L 9.15625 0 L 7.5 0 L 4 -4.734375 L 2.546875 -4.734375 L 2.546875 0 L 1.328125 0 L 1.328125 -11.96875 L 5.15625 -11.96875 C 6.226562 -11.96875 7.128906 -11.632812 7.859375 -10.96875 C 8.597656 -10.269531 8.96875 -9.398438 8.96875 -8.359375 Z M 8.96875 -8.359375 "/></g></g></g><g fill="#000000" fill-opacity="1"><g transform="translate(49.135291, 18.035315)"><g><path d="M 8.4375 0 L 1.328125 0 L 1.328125 -11.96875 L 8.4375 -11.96875 L 8.4375 -10.828125 L 2.546875 -10.828125 L 2.546875 -6.5625 L 8.265625 -6.5625 L 8.265625 -5.40625 L 2.546875 -5.40625 L 2.546875 -1.140625 L 8.4375 -1.140625 Z M 8.4375 0 "/></g></g></g><g fill="#000000" fill-opacity="1"><g transform="translate(63.977835, 18.035315)"><g><path d="M 8.4375 0 L 1.328125 0 L 1.328125 -11.96875 L 8.4375 -11.96875 L 8.4375 -10.828125 L 2.546875 -10.828125 L 2.546875 -6.5625 L 8.265625 -6.5625 L 8.265625 -5.40625 L 2.546875 -5.40625 L 2.546875 -1.140625 L 8.4375 -1.140625 Z M 8.4375 0 "/></g></g></g><g fill="#000000" fill-opacity="1"><g transform="translate(78.82038, 18.035315)"><g><path d="M 2.546875 -5.921875 L 5.328125 -5.921875 C 6.023438 -5.921875 6.597656 -6.15625 7.046875 -6.625 C 7.503906 -7.101562 7.734375 -7.695312 7.734375 -8.40625 C 7.734375 -9.09375 7.515625 -9.664062 7.078125 -10.125 C 6.640625 -10.570312 6.054688 -10.796875 5.328125 -10.796875 L 2.546875 -10.796875 Z M 8.96875 -8.359375 C 8.96875 -7.316406 8.597656 -6.453125 7.859375 -5.765625 C 7.203125 -5.148438 6.40625 -4.8125 5.46875 -4.75 L 9.15625 0 L 7.5 0 L 4 -4.734375 L 2.546875 -4.734375 L 2.546875 0 L 1.328125 0 L 1.328125 -11.96875 L 5.15625 -11.96875 C 6.226562 -11.96875 7.128906 -11.632812 7.859375 -10.96875 C 8.597656 -10.269531 8.96875 -9.398438 8.96875 -8.359375 Z M 8.96875 -8.359375 "/></g></g></g></g></g><g transform="matrix(1, 0, 0, 1, 158, 87)"><g clip-path="url(#6b8b5aefe6)"><g fill="#ffffff" fill-opacity="1"><g transform="translate(7.297014, 156.858932)"><g><path d="M -4.210938 0 L -4.210938 -12.730469 L 5.945312 -12.730469 C 7.714844 -12.730469 9.167969 -12.832031 10.304688 -13.039062 C 10.695312 -13.109375 11.011719 -13.1875 11.257812 -13.269531 L 11.28125 -13.257812 C 10.25 -12.667969 9.582031 -11.957031 9.277344 -11.132812 C 9.398438 -11.464844 9.460938 -12.179688 9.460938 -13.277344 L 9.460938 -131.171875 C 9.460938 -132.269531 9.398438 -132.984375 9.277344 -133.3125 C 9.582031 -132.492188 10.25 -131.78125 11.28125 -131.191406 L 11.257812 -131.179688 C 11.011719 -131.261719 10.695312 -131.339844 10.304688 -131.410156 C 9.167969 -131.613281 7.714844 -131.71875 5.945312 -131.71875 L -4.210938 -131.71875 L -4.210938 -154.605469 L 65.238281 -154.605469 L 65.238281 -131.71875 L 55.085938 -131.71875 C 53.359375 -131.71875 51.9375 -131.621094 50.8125 -131.421875 C 50.210938 -131.316406 49.855469 -131.234375 49.742188 -131.175781 C 50.746094 -131.71875 51.414062 -132.398438 51.753906 -133.210938 C 51.65625 -132.976562 51.589844 -132.390625 51.5625 -131.460938 L 41.414062 -131.765625 L 51.566406 -131.765625 L 51.566406 -75.691406 L 41.414062 -75.691406 L 41.414062 -85.847656 L 102.242188 -85.847656 L 102.242188 -75.691406 L 92.089844 -75.691406 L 92.089844 -131.171875 C 92.089844 -132.234375 92.03125 -132.917969 91.914062 -133.21875 C 92.230469 -132.394531 92.898438 -131.695312 93.921875 -131.125 C 93.789062 -131.199219 93.40625 -131.292969 92.773438 -131.40625 C 91.617188 -131.613281 90.148438 -131.71875 88.375 -131.71875 L 78.21875 -131.71875 L 78.21875 -154.605469 L 147.867188 -154.605469 L 147.867188 -131.71875 L 137.710938 -131.71875 C 135.941406 -131.71875 134.488281 -131.613281 133.351562 -131.410156 C 132.960938 -131.339844 132.644531 -131.261719 132.394531 -131.179688 L 132.375 -131.191406 C 133.40625 -131.78125 134.074219 -132.492188 134.378906 -133.3125 C 134.257812 -132.984375 134.195312 -132.269531 134.195312 -131.171875 L 134.195312 -12.878906 C 134.195312 -11.886719 134.242188 -11.269531 134.335938 -11.019531 C 133.992188 -11.925781 133.269531 -12.675781 132.171875 -13.273438 C 132.132812 -13.296875 132.101562 -13.3125 132.085938 -13.316406 C 132.121094 -13.300781 132.175781 -13.285156 132.242188 -13.261719 C 132.507812 -13.179688 132.847656 -13.101562 133.261719 -13.03125 C 134.425781 -12.832031 135.910156 -12.730469 137.710938 -12.730469 L 147.867188 -12.730469 L 147.867188 10.15625 L 78.21875 10.15625 L 78.21875 -12.730469 L 88.375 -12.730469 C 90.148438 -12.730469 91.617188 -12.835938 92.773438 -13.042969 C 93.40625 -13.15625 93.789062 -13.25 93.921875 -13.324219 C 92.898438 -12.753906 92.230469 -12.054688 91.914062 -11.226562 C 92.03125 -11.53125 92.089844 -12.214844 92.089844 -13.277344 L 92.089844 -73.117188 L 102.242188 -73.117188 L 102.242188 -62.960938 L 41.414062 -62.960938 L 41.414062 -73.117188 L 51.566406 -73.117188 L 51.566406 -11.292969 L 41.414062 -11.292969 L 51.542969 -12.019531 C 51.566406 -11.679688 51.601562 -11.417969 51.648438 -11.230469 L 51.644531 -11.230469 C 51.617188 -11.304688 51.582031 -11.386719 51.53125 -11.476562 C 51.105469 -12.289062 50.425781 -12.914062 49.5 -13.351562 C 50.378906 -12.9375 52.238281 -12.730469 55.085938 -12.730469 L 65.238281 -12.730469 L 65.238281 10.15625 L -4.210938 10.15625 Z M 16.097656 0 L 5.945312 0 L 5.945312 -10.15625 L 55.085938 -10.15625 L 55.085938 0 L 44.929688 0 L 44.929688 -2.574219 L 55.085938 -2.574219 L 55.085938 7.578125 C 49.210938 7.578125 44.46875 6.730469 40.851562 5.027344 C 37.683594 3.535156 35.253906 1.195312 33.570312 -1.996094 C 32.277344 -4.445312 31.515625 -7.300781 31.28125 -10.570312 L 31.257812 -10.933594 L 31.257812 -83.269531 L 112.398438 -83.269531 L 112.398438 -13.277344 C 112.398438 -4.679688 109.542969 1.214844 103.828125 4.40625 C 100.042969 6.523438 94.890625 7.578125 88.375 7.578125 L 88.375 -2.574219 L 98.527344 -2.574219 L 98.527344 0 L 88.375 0 L 88.375 -10.15625 L 137.710938 -10.15625 L 137.710938 0 L 127.554688 0 L 127.554688 -2.574219 L 137.710938 -2.574219 L 137.710938 7.578125 C 131.230469 7.578125 126.140625 6.570312 122.445312 4.554688 C 116.738281 1.441406 113.882812 -4.371094 113.882812 -12.878906 L 113.882812 -131.171875 C 113.882812 -139.710938 116.671875 -145.582031 122.242188 -148.789062 C 125.988281 -150.949219 131.144531 -152.027344 137.710938 -152.027344 L 137.710938 -141.871094 L 127.554688 -141.871094 L 127.554688 -144.449219 L 137.710938 -144.449219 L 137.710938 -134.292969 L 88.375 -134.292969 L 88.375 -144.449219 L 98.527344 -144.449219 L 98.527344 -141.871094 L 88.375 -141.871094 L 88.375 -152.027344 C 94.890625 -152.027344 100.042969 -150.96875 103.828125 -148.855469 C 109.542969 -145.664062 112.398438 -139.769531 112.398438 -131.171875 L 112.398438 -65.535156 L 31.257812 -65.535156 L 31.257812 -131.921875 L 31.261719 -132.074219 C 31.511719 -140.3125 34.429688 -145.957031 40.015625 -149.003906 C 43.710938 -151.019531 48.734375 -152.027344 55.085938 -152.027344 L 55.085938 -141.871094 L 44.929688 -141.871094 L 44.929688 -144.449219 L 55.085938 -144.449219 L 55.085938 -134.292969 L 5.945312 -134.292969 L 5.945312 -144.449219 L 16.097656 -144.449219 L 16.097656 -141.871094 L 5.945312 -141.871094 L 5.945312 -152.027344 C 12.507812 -152.027344 17.667969 -150.949219 21.414062 -148.789062 C 26.984375 -145.582031 29.773438 -139.710938 29.773438 -131.171875 L 29.773438 -13.277344 C 29.773438 -4.738281 26.984375 1.132812 21.414062 4.34375 C 17.667969 6.5 12.507812 7.578125 5.945312 7.578125 L 5.945312 -2.574219 L 16.097656 -2.574219 Z M 16.097656 0 "/></g></g></g><g fill="#000000" fill-opacity="1"><g transform="translate(7.297014, 156.858932)"><g><path d="M 5.9375 0 L 5.9375 -2.578125 C 10.695312 -2.578125 14.164062 -3.203125 16.34375 -4.453125 C 18.519531 -5.710938 19.609375 -8.65625 19.609375 -13.28125 L 19.609375 -131.171875 C 19.609375 -135.796875 18.519531 -138.734375 16.34375 -139.984375 C 14.164062 -141.242188 10.695312 -141.875 5.9375 -141.875 L 5.9375 -144.4375 L 55.078125 -144.4375 L 55.078125 -141.875 C 50.453125 -141.875 47.050781 -141.273438 44.875 -140.078125 C 42.695312 -138.890625 41.539062 -136.117188 41.40625 -131.765625 L 41.40625 -75.6875 L 102.234375 -75.6875 L 102.234375 -131.171875 C 102.234375 -135.796875 101.109375 -138.734375 98.859375 -139.984375 C 96.617188 -141.242188 93.125 -141.875 88.375 -141.875 L 88.375 -144.4375 L 137.703125 -144.4375 L 137.703125 -141.875 C 132.953125 -141.875 129.484375 -141.242188 127.296875 -139.984375 C 125.117188 -138.734375 124.03125 -135.796875 124.03125 -131.171875 L 124.03125 -12.875 C 124.03125 -8.382812 125.117188 -5.546875 127.296875 -4.359375 C 129.484375 -3.171875 132.953125 -2.578125 137.703125 -2.578125 L 137.703125 0 L 88.375 0 L 88.375 -2.578125 C 93.125 -2.578125 96.617188 -3.203125 98.859375 -4.453125 C 101.109375 -5.710938 102.234375 -8.65625 102.234375 -13.28125 L 102.234375 -73.109375 L 41.40625 -73.109375 L 41.40625 -11.296875 C 41.675781 -7.597656 42.929688 -5.21875 45.171875 -4.15625 C 47.421875 -3.101562 50.722656 -2.578125 55.078125 -2.578125 L 55.078125 0 Z M 5.9375 0 "/></g></g></g></g></g></svg>